<svg width="200" height="200" viewBox="0 0 200 200" xmlns="http://www.w3.org/2000/svg">
  <defs>
    <linearGradient id="grad" x1="0%" y1="0%" x2="100%" y2="100%">
      <stop offset="0%" style="stop-color:#06b6d4;stop-opacity:1" />
      <stop offset="100%" style="stop-color:#1e40af;stop-opacity:1" />
    </linearGradient>
  </defs>
  <!-- Pin Lokasi -->
  <path d="M100 20 C72 20 50 42 50 70 C50 100 90 140 100 150 C110 140 150 100 150 70 C150 42 128 20 100 20 Z" fill="url(#grad)" />
  <!-- Sidik Jari (Stylized/Premium) -->
  <path d="M100 50 A 20 20 0 0 0 80 70 M100 55 A 15 15 0 0 0 85 70 M100 60 A 10 10 0 0 0 90 70 M100 80 A 10 10 0 0 1 90 70 M100 85 A 15 15 0 0 1 85 70" stroke="white" stroke-width="3" fill="none" stroke-linecap="round" />
</svg>